<svg width="770" height="789" viewBox="0 0 770 789" fill="none" xmlns="http://www.w3.org/2000/svg">
<path d="M385.278 168.746L190.428 281.246V506.246L385.278 618.746L580.128 506.246V281.246L385.278 168.746Z" fill="#36C399"/>
<path d="M190.428 281.246L246.718 313.746L385.278 233.746V168.746L190.428 281.246Z" fill="#FFAA5B"/>
<path d="M385.278 618.746L385.278 553.747L523.838 473.751L580.128 506.251L385.278 618.746Z" fill="#F25F3F"/>
<path d="M190.428 506.248L246.718 473.749L385.277 553.747L385.276 618.746L190.428 506.248Z" fill="#CB1F0E"/>
<path d="M385.278 168.746L385.278 233.746L523.838 313.746L580.128 281.246L385.278 168.746Z" fill="#FFAA5B"/>
<path d="M580.128 281.246L523.838 313.746L523.838 473.746L580.128 506.246L580.128 393.746L580.128 281.246Z" fill="#F25F3F"/>
<path d="M190.428 281.246L246.718 313.746L246.718 473.746L190.428 506.246L190.428 393.746L190.428 281.246Z" fill="#CB1F0E"/>
<circle cx="60" cy="60" r="60" transform="matrix(1 0 0 -1 325 124.498)" fill="#111111"/>
<circle cx="60" cy="60" r="60" transform="matrix(1 0 0 -1 325 788.498)" fill="#111111"/>
<path d="M770 393.498C770 360.361 743.137 333.498 710 333.498C676.863 333.498 650 360.361 650 393.498C650 426.635 676.863 453.498 710 453.498C743.137 453.498 770 426.635 770 393.498Z" fill="#111111"/>
<path d="M700 638.498C700 605.361 673.137 578.498 640 578.498C606.863 578.498 580 605.361 580 638.498C580 671.635 606.863 698.498 640 698.498C673.137 698.498 700 671.635 700 638.498Z" fill="#111111"/>
<path d="M190 638.498C190 605.361 163.137 578.498 130 578.498C96.8629 578.498 70 605.361 70 638.498C70 671.635 96.8629 698.498 130 698.498C163.137 698.498 190 671.635 190 638.498Z" fill="#111111"/>
<path d="M190 158.498C190 125.361 163.137 98.4981 130 98.4981C96.8629 98.4981 70 125.361 70 158.498C70 191.635 96.8629 218.498 130 218.498C163.137 218.498 190 191.635 190 158.498Z" fill="#111111"/>
<path d="M700 158.498C700 125.361 673.137 98.4981 640 98.4981C606.863 98.4981 580 125.361 580 158.498C580 191.635 606.863 218.498 640 218.498C673.137 218.498 700 191.635 700 158.498Z" fill="#111111"/>
<path d="M120 393.498C120 360.361 93.1371 333.498 60 333.498C26.8629 333.498 0 360.361 0 393.498C0 426.635 26.8629 453.498 60 453.498C93.1371 453.498 120 426.635 120 393.498Z" fill="#111111"/>
<path d="M385.28 233.75L246.72 313.75L385.34 394L523.84 313.75L385.28 233.75Z" fill="#242424"/>
<path d="M385.342 393.996L385.342 553.993L523.902 473.996L523.84 313.75L385.342 393.996Z" fill="#161616"/>
<path d="M385.342 394L246.72 313.75L246.782 474L385.342 554L385.342 394Z" fill="#111111"/>
<path d="M385.25 269L277 331.5V456.5L385.25 519L493.5 456.5V331.5L385.25 269Z" fill="#E536AB" fill-opacity="0.5"/>
</svg>
